<svg width="58" height="53" viewBox="0 0 58 53" fill="none" xmlns="http://www.w3.org/2000/svg">
<path d="M57.7014 49.3502C57.5428 51.3186 56.3775 52.3685 54.2057 52.5C53.4325 52.2011 52.5933 52.5239 51.807 52.2908C45.8729 51.8246 40.9896 49.4398 36.9785 45.537C33.9058 42.5426 32.0225 38.9923 31.0643 35.0058C30.5952 33.0514 30.8132 31.0909 30.6745 29.1365C30.615 28.2818 30.9586 27.9949 31.8903 28.0428C33.093 28.1025 34.3023 28.0547 35.5116 28.0547C36.06 28.3296 36.701 28.0428 37.2495 28.2818C42.7474 29.2501 47.525 31.3898 51.3246 35.209C54.3378 38.2392 56.2872 41.7178 57.0802 45.7282C57.1793 46.2123 57.3379 46.6785 57.47 47.1567C57.7344 47.8679 57.3842 48.6389 57.7014 49.3502Z" fill="#AD2C77"/>
<path d="M0.548698 47.1564C1.63902 37.7608 9.46955 29.8056 20.7561 28.2815C21.3045 28.0305 21.9455 28.3293 22.4874 28.0484C22.9235 28.0544 23.3596 28.0783 23.7958 28.0664C27.4368 27.9827 27.4566 27.9767 27.298 31.3357C26.8421 41.2035 19.5534 49.1765 9.51581 51.7047C8.41226 51.9797 7.31534 52.1829 6.18537 52.2845C5.40562 52.5116 4.57302 52.1889 3.79988 52.4937C3.64129 52.4758 3.48267 52.4459 3.32408 52.4399C1.47383 52.3961 0.462824 51.5613 0.291016 49.9356C0.641241 49.0271 0.23154 48.0649 0.53551 47.1564H0.548698Z" fill="#D3713F"/>
<path d="M57.4635 5.9042C56.7433 9.57996 55.4085 13.0346 52.9106 16.0469C48.7344 21.0854 43.1307 23.9303 36.265 24.791C34.3949 24.8747 32.5248 25.048 30.668 24.7013C30.7605 21.3723 30.5887 18.0312 32.016 14.8216C35.5447 6.89038 41.7761 2.09098 51.2124 0.811937C52.8512 0.590794 54.4899 0.626655 56.1221 0.513095C57.4107 0.423443 57.7873 0.847799 57.6354 1.93558C57.5693 2.41971 57.675 2.92176 57.708 3.41784C57.3644 4.22471 57.7543 5.09135 57.4635 5.9042Z" fill="#3C2B68"/>
<path d="M22.0855 24.7791C12.6889 23.6854 6.27907 19.125 2.55874 11.2536C1.05211 8.06193 0.939746 4.76869 0.919922 1.41569C0.919922 0.638697 1.32301 0.555021 2.03668 0.525137C14.1889 0.0290599 24.3785 6.92035 27.1142 17.2184C27.3587 18.1269 27.5305 19.0533 27.742 19.9678C27.7618 20.165 27.7882 19.908 27.7882 20.1112C27.7816 21.6652 28.6076 23.8169 27.471 24.6118C26.2221 25.4844 23.9291 24.9345 22.0855 24.7791Z" fill="#5EB4C3"/>
</svg>
