<svg width="116" height="42" viewBox="0 0 116 42" fill="none" xmlns="http://www.w3.org/2000/svg">
<g clip-path="url(#clip0_117_3190)">
<path d="M67.685 34.4424V34.0943H70.315V34.4424H69.1602V37.5918H68.7514V34.4424H67.685ZM70.9303 34.0943H72.9857V34.4424H71.3392V35.5972H72.726V35.9453H71.3392V37.2437H73.0575V37.5918H70.9303V34.0943ZM76.115 34.3761L75.9493 34.6137C75.7025 34.459 75.4501 34.3816 75.1923 34.3816C74.8387 34.3816 74.5606 34.5271 74.358 34.8181C74.1701 35.0834 74.0762 35.437 74.0762 35.879C74.0762 36.3394 74.1978 36.6986 74.4409 36.9564C74.6471 37.1811 74.9124 37.2934 75.2365 37.2934C75.5017 37.2934 75.754 37.2069 75.9935 37.0338L76.1592 37.2824C75.8719 37.5329 75.5459 37.6581 75.1813 37.6581C74.6766 37.6581 74.2806 37.4629 73.9933 37.0724C73.7576 36.752 73.6397 36.3541 73.6397 35.879C73.6397 35.3486 73.7834 34.9029 74.0707 34.5419C74.3433 34.1993 74.6913 34.028 75.1149 34.028C75.4907 34.028 75.824 34.1441 76.115 34.3761ZM77.3398 37.5918H76.9309V34.0943H77.3398V35.5972H79.1133V34.0943H79.5222V37.5918H79.1133V35.9453H77.3398V37.5918ZM80.1599 34.4424V34.0943H82.7899V34.4424H81.6351V37.5918H81.2263V34.4424H80.1599ZM83.4273 37.5918V34.0943C83.7552 34.0501 84.0388 34.028 84.2782 34.028C85.1033 34.028 85.5159 34.3816 85.5159 35.0889C85.5159 35.5714 85.3096 35.8956 84.897 36.0613L85.5987 37.5918H85.1843L84.5379 36.1608L84.5324 36.1552C84.4698 36.1626 84.3924 36.1663 84.3003 36.1663C84.1567 36.1663 84.002 36.1552 83.8362 36.1331V37.5918H83.4273ZM83.8362 34.3927V35.8016C83.9688 35.8237 84.1161 35.8348 84.2782 35.8348C84.816 35.8348 85.0849 35.5861 85.0849 35.0889C85.0849 34.599 84.816 34.354 84.2782 34.354C84.1088 34.354 83.9614 34.3669 83.8362 34.3927ZM87.2294 34.0943H87.6549L88.9091 37.5918H88.4892L88.2074 36.7741H86.6879L86.4006 37.5918H85.9752L87.2294 34.0943ZM87.4394 34.5529L86.7984 36.4315H88.0858L87.4394 34.5529ZM89.8956 37.5918H89.4867V34.0943H89.8569C90.1921 34.599 90.7759 35.5493 91.6084 36.9453V34.0943H92.0173V37.5918H91.636C91.4371 37.2934 91.0319 36.6488 90.4205 35.658C90.1626 35.2381 89.9877 34.9507 89.8956 34.796V37.5918ZM92.7946 37.3045L92.9714 37.0559C93.2403 37.2106 93.5258 37.2879 93.8279 37.2879C94.0599 37.2879 94.2422 37.2345 94.3748 37.1277C94.5075 37.0172 94.5738 36.8625 94.5738 36.6636C94.5738 36.3247 94.3509 36.0779 93.9052 35.9232C93.5258 35.7943 93.2514 35.6506 93.0819 35.4922C92.9125 35.3338 92.8278 35.1404 92.8278 34.9121C92.8278 34.6395 92.9346 34.4203 93.1483 34.2546C93.3435 34.1035 93.5995 34.028 93.9163 34.028C94.2625 34.028 94.5774 34.1238 94.8611 34.3153L94.6787 34.564C94.4504 34.4424 94.2054 34.3816 93.9439 34.3816C93.7302 34.3816 93.5608 34.4277 93.4356 34.5198C93.3103 34.6119 93.2477 34.7371 93.2477 34.8955C93.2477 35.1423 93.4392 35.3375 93.8223 35.4812C94.257 35.6469 94.5609 35.8182 94.734 35.995C94.9108 36.1681 94.9992 36.3947 94.9992 36.6746C94.9992 36.9951 94.8758 37.2474 94.629 37.4316C94.4264 37.5826 94.1796 37.6581 93.8886 37.6581C93.524 37.6581 93.1593 37.5402 92.7946 37.3045Z" fill="#2F2765"/>
<path d="M101.288 34.3816C101.221 34.4811 101.118 34.6303 100.978 34.8292C100.683 34.7003 100.42 34.6358 100.188 34.6358C99.8823 34.6358 99.7295 34.75 99.7295 34.9784C99.7295 35.0815 99.7645 35.1625 99.8345 35.2215C99.9044 35.2804 100.05 35.3522 100.271 35.437C100.669 35.5917 100.954 35.7593 101.127 35.9398C101.304 36.1202 101.393 36.3376 101.393 36.5917C101.393 36.949 101.258 37.2253 100.989 37.4205C100.768 37.5789 100.494 37.6581 100.166 37.6581C99.7792 37.6581 99.3667 37.5181 98.9283 37.2382L99.2488 36.7906C99.4624 36.9343 99.7368 37.0061 100.072 37.0061C100.451 37.0061 100.641 36.8533 100.641 36.5475C100.641 36.3486 100.437 36.1792 100.028 36.0392C99.3685 35.8182 99.0388 35.4646 99.0388 34.9784C99.0388 34.6837 99.1493 34.4498 99.3703 34.2767C99.5766 34.1109 99.851 34.028 100.194 34.028C100.584 34.028 100.949 34.1459 101.288 34.3816ZM102.655 34.6745H101.644V34.0943H104.473V34.6745H103.384V37.5918H102.655V34.6745ZM106.254 34.028C106.792 34.028 107.207 34.2417 107.498 34.669C107.726 35.0042 107.84 35.4093 107.84 35.8845C107.84 36.4297 107.691 36.8662 107.393 37.194C107.109 37.5034 106.73 37.6581 106.254 37.6581C105.709 37.6581 105.295 37.4592 105.011 37.0614C104.783 36.7483 104.669 36.356 104.669 35.8845C104.669 35.332 104.818 34.8808 105.116 34.5308C105.4 34.1956 105.779 34.028 106.254 34.028ZM106.254 37.0503C106.52 37.0503 106.724 36.9509 106.868 36.752C107.011 36.5494 107.083 36.2602 107.083 35.8845C107.083 35.483 107.004 35.1699 106.846 34.9452C106.698 34.7463 106.501 34.6469 106.254 34.6469C105.989 34.6469 105.783 34.7555 105.636 34.9728C105.492 35.1902 105.42 35.4941 105.42 35.8845C105.42 36.6617 105.698 37.0503 106.254 37.0503ZM108.505 37.5918V34.0999C108.556 34.0888 108.702 34.0741 108.941 34.0557C109.181 34.0372 109.363 34.028 109.488 34.028C110.38 34.028 110.825 34.3927 110.825 35.122C110.825 35.5162 110.665 35.8514 110.345 36.1276C110.477 36.4333 110.704 36.9214 111.024 37.5918H110.295C110.115 37.1977 109.919 36.7741 109.709 36.321C109.669 36.3284 109.614 36.332 109.544 36.332C109.382 36.332 109.277 36.3173 109.229 36.2878V37.5918H108.505ZM109.229 34.6469V35.7022C109.339 35.7353 109.459 35.7519 109.588 35.7519C109.905 35.7519 110.063 35.5419 110.063 35.122C110.063 34.7795 109.899 34.6082 109.571 34.6082C109.383 34.6082 109.269 34.6211 109.229 34.6469ZM111.319 34.0943H113.607V34.6745H112.043V35.4977H113.347V36.0779H112.043V37.0116H113.679V37.5918H111.319V34.0943Z" fill="#CB1784"/>
<path d="M91.7212 15.6486H90.5385V16.0641C90.5385 16.7036 90.4108 17.1809 90.1554 17.4971C89.9 17.8133 89.5089 17.9714 88.9839 17.9714C88.693 17.9714 88.3657 17.9248 88.0039 17.8325L88.1742 17.0978C88.4437 17.1545 88.6677 17.1829 88.8451 17.1829C89.143 17.1829 89.3639 17.0958 89.5058 16.9215C89.6477 16.7471 89.7186 16.4614 89.7186 16.0641V10.7477H90.5385V14.8601H91.7212V15.6486ZM91.2621 15.2544C91.2621 15.1338 91.3046 15.0375 91.3898 14.9666C91.4749 14.8956 91.5854 14.8601 91.7202 14.8601H93.8514V15.6486H91.7202C91.5783 15.6486 91.4658 15.6131 91.3847 15.5422C91.3026 15.4712 91.2621 15.375 91.2621 15.2544ZM93.3933 15.2544C93.3933 15.1338 93.4359 15.0375 93.521 14.9666C93.6061 14.8956 93.7166 14.8601 93.8514 14.8601H95.9826V15.6486H93.8514C93.7095 15.6486 93.597 15.6131 93.5159 15.5422C93.4339 15.4712 93.3933 15.375 93.3933 15.2544ZM95.5246 15.2544C95.5246 15.1338 95.5671 15.0375 95.6523 14.9666C95.7374 14.8956 95.8478 14.8601 95.9826 14.8601H98.1139V15.6486H95.9826C95.8408 15.6486 95.7283 15.6131 95.6472 15.5422C95.5651 15.4712 95.5246 15.375 95.5246 15.2544ZM105.081 14.8601V15.6486H98.1139C98.0004 15.6486 97.9031 15.6081 97.821 15.526C97.7389 15.4439 97.6984 15.3466 97.6984 15.2331C97.6984 15.1267 97.7379 15.0395 97.8159 14.9716C97.894 14.9037 97.9933 14.8672 98.1139 14.8601H103.121C103.064 14.6899 102.997 14.3848 102.919 13.944C102.911 13.866 102.893 13.7555 102.865 13.6136C102.758 13.0096 102.617 12.5303 102.438 12.1756C102.261 11.8209 102.023 11.5432 101.725 11.3446C101.469 11.1743 101.176 11.0476 100.846 10.9666C100.516 10.8855 100.18 10.8439 99.8397 10.8439C99.4567 10.8439 99.108 10.8905 98.7959 10.9828L98.6469 10.1842C99.03 10.0849 99.4455 10.0352 99.8934 10.0352C100.312 10.0352 100.724 10.0889 101.129 10.1953C101.533 10.3017 101.899 10.4649 102.226 10.6858C102.602 10.9412 102.908 11.2969 103.143 11.7509C103.377 12.206 103.554 12.7846 103.676 13.488C103.754 13.9075 103.819 14.2055 103.872 14.3828C103.926 14.5602 104.004 14.6848 104.106 14.7558C104.21 14.8267 104.364 14.8622 104.569 14.8622H105.081V14.8601ZM101.394 17.5984C101.26 17.5984 101.142 17.5508 101.043 17.4545C100.943 17.3582 100.894 17.2397 100.894 17.0978C100.894 16.9559 100.943 16.8475 101.043 16.7512C101.142 16.6549 101.26 16.6073 101.394 16.6073C101.529 16.6073 101.645 16.6549 101.741 16.7512C101.837 16.8475 101.885 16.962 101.885 17.0978C101.885 17.2336 101.837 17.3501 101.741 17.4495C101.645 17.5488 101.529 17.5984 101.394 17.5984ZM107.627 13.1029C107.627 13.6927 107.769 14.1325 108.054 14.4244C108.337 14.7152 108.767 14.8612 109.343 14.8612V15.6496C108.327 15.6496 107.641 15.2807 107.286 14.5419C107.081 14.9037 106.791 15.1794 106.418 15.3679C106.045 15.5564 105.599 15.6506 105.081 15.6506C104.946 15.6506 104.836 15.6121 104.751 15.5331C104.666 15.455 104.623 15.3557 104.623 15.2351C104.623 15.1216 104.664 15.0314 104.746 14.9635C104.828 14.8956 104.939 14.8622 105.081 14.8622C106.231 14.8622 106.807 14.2764 106.807 13.1039V10.7497H107.627V13.1039V13.1029ZM106.359 9.62883C106.224 9.62883 106.107 9.57917 106.007 9.47985C105.908 9.38054 105.858 9.26298 105.858 9.12819C105.858 8.99341 105.908 8.87788 106.007 8.7816C106.107 8.68533 106.224 8.6377 106.359 8.6377C106.494 8.6377 106.609 8.68533 106.706 8.7816C106.802 8.87788 106.85 8.99341 106.85 9.12819C106.85 9.26298 106.802 9.38054 106.706 9.47985C106.609 9.57917 106.494 9.62883 106.359 9.62883ZM108.064 9.62883C107.929 9.62883 107.811 9.57917 107.712 9.47985C107.613 9.38054 107.563 9.26298 107.563 9.12819C107.563 8.99341 107.613 8.87788 107.712 8.7816C107.811 8.68533 107.929 8.6377 108.064 8.6377C108.198 8.6377 108.314 8.68533 108.41 8.7816C108.507 8.87788 108.554 8.99341 108.554 9.12819C108.554 9.26298 108.507 9.38054 108.41 9.47985C108.314 9.57917 108.198 9.62883 108.064 9.62883ZM113.327 10.0231C113.832 10.0231 114.281 10.1497 114.675 10.4011C115.07 10.6534 115.377 11 115.597 11.4398C115.816 11.8807 115.927 12.3742 115.927 12.9204C115.927 13.4667 115.808 13.9683 115.57 14.3798C115.332 14.7922 115.016 15.1074 114.622 15.3283C114.227 15.5483 113.803 15.6587 113.349 15.6587C112.944 15.6587 112.55 15.5695 112.166 15.3922C111.783 15.2148 111.441 14.9524 111.144 14.6037L111.132 14.625C110.969 14.9514 110.733 15.2037 110.424 15.381C110.115 15.5584 109.754 15.6476 109.343 15.6476C109.208 15.6476 109.097 15.6091 109.012 15.53C108.927 15.452 108.885 15.3527 108.885 15.2321C108.885 15.1186 108.925 15.0284 109.007 14.9605C109.089 14.8926 109.201 14.8591 109.343 14.8591C109.605 14.8591 109.838 14.7993 110.041 14.6777C110.244 14.5571 110.391 14.3899 110.483 14.1771C110.561 13.9997 110.618 13.7991 110.653 13.5751C110.688 13.3512 110.71 13.2184 110.717 13.1758C110.759 12.8282 110.813 12.5293 110.877 12.281C111.061 11.5493 111.36 10.9899 111.772 10.6027C112.183 10.2156 112.702 10.022 113.327 10.022V10.0231ZM113.316 14.8713C113.643 14.8713 113.942 14.7953 114.211 14.6423C114.481 14.4892 114.698 14.2663 114.861 13.9714C115.024 13.6765 115.106 13.3268 115.106 12.9215C115.106 12.3104 114.944 11.8118 114.622 11.4246C114.298 11.0375 113.867 10.8439 113.327 10.8439C112.908 10.8439 112.567 10.9706 112.305 11.2219C112.042 11.4743 111.836 11.8563 111.687 12.3671C111.602 12.658 111.534 12.9853 111.484 13.3471L111.388 13.8376C111.657 14.1781 111.961 14.4365 112.299 14.6098C112.636 14.7841 112.976 14.8713 113.316 14.8713Z" fill="#CB1784"/>
<path d="M55.1114 32.8546C54.8672 32.8546 54.6584 32.9418 54.4841 33.1161C54.3098 33.2904 54.2227 33.4992 54.2227 33.7434C54.2227 33.9876 54.3098 34.1964 54.4841 34.3707C54.6584 34.545 54.8672 34.6322 55.1114 34.6322C55.3557 34.6322 55.5644 34.545 55.7387 34.3707C55.9131 34.1964 56.0002 33.9876 56.0002 33.7434C56.0002 33.4992 55.9131 33.2904 55.7387 33.1161C55.5644 32.9418 55.3557 32.8546 55.1114 32.8546Z" fill="#492D7E"/>
<path d="M53.0333 32.8546C52.7891 32.8546 52.5803 32.9418 52.406 33.1161C52.2317 33.2904 52.1445 33.4992 52.1445 33.7434C52.1445 33.9876 52.2317 34.1964 52.406 34.3707C52.5803 34.545 52.7891 34.6322 53.0333 34.6322C53.2775 34.6322 53.4863 34.545 53.6606 34.3707C53.8349 34.1964 53.9221 33.9876 53.9221 33.7434C53.9221 33.4992 53.8349 33.2904 53.6606 33.1161C53.4863 32.9418 53.2775 32.8546 53.0333 32.8546Z" fill="#492D7E"/>
<path d="M60.4825 23.209C60.7258 23.209 60.9355 23.1219 61.1098 22.9476C61.2842 22.7733 61.3713 22.5645 61.3713 22.3203C61.3713 22.076 61.2842 21.8673 61.1098 21.694C60.9355 21.5197 60.7268 21.4325 60.4825 21.4325C60.2383 21.4325 60.0295 21.5197 59.8552 21.694C59.6809 21.8683 59.5938 22.077 59.5938 22.3203C59.5938 22.5635 59.6809 22.7733 59.8552 22.9476C60.0295 23.1219 60.2383 23.209 60.4825 23.209Z" fill="#492D7E"/>
<path d="M67.42 22.7092C67.6632 22.7092 67.873 22.622 68.0473 22.4477C68.2216 22.2734 68.3088 22.0646 68.3088 21.8204C68.3088 21.5761 68.2216 21.3674 68.0473 21.1941C67.873 21.0198 67.6643 20.9326 67.42 20.9326C67.1758 20.9326 66.967 21.0198 66.7927 21.1941C66.6184 21.3684 66.5312 21.5772 66.5312 21.8204C66.5312 22.0636 66.6184 22.2734 66.7927 22.4477C66.967 22.622 67.1758 22.7092 67.42 22.7092Z" fill="#492D7E"/>
<path d="M65.34 22.7092C65.5832 22.7092 65.793 22.622 65.9673 22.4477C66.1416 22.2734 66.2287 22.0646 66.2287 21.8204C66.2287 21.5761 66.1416 21.3674 65.9673 21.1941C65.793 21.0198 65.5842 20.9326 65.34 20.9326C65.0957 20.9326 64.8869 21.0198 64.7126 21.1941C64.5383 21.3684 64.4512 21.5772 64.4512 21.8204C64.4512 22.0636 64.5383 22.2734 64.7126 22.4477C64.8869 22.622 65.0957 22.7092 65.34 22.7092Z" fill="#492D7E"/>
<path d="M73.1564 23.209C73.3996 23.209 73.6094 23.1219 73.7837 22.9476C73.958 22.7733 74.0451 22.5645 74.0451 22.3203C74.0451 22.076 73.958 21.8673 73.7837 21.694C73.6094 21.5197 73.4006 21.4325 73.1564 21.4325C72.9121 21.4325 72.7034 21.5197 72.529 21.694C72.3547 21.8683 72.2676 22.077 72.2676 22.3203C72.2676 22.5635 72.3547 22.7733 72.529 22.9476C72.7034 23.1219 72.9121 23.209 73.1564 23.209Z" fill="#492D7E"/>
<path d="M71.0763 23.209C71.3195 23.209 71.5293 23.1219 71.7036 22.9476C71.8779 22.7733 71.9651 22.5645 71.9651 22.3203C71.9651 22.076 71.8779 21.8673 71.7036 21.694C71.5293 21.5207 71.3205 21.4325 71.0763 21.4325C70.832 21.4325 70.6233 21.5197 70.449 21.694C70.2747 21.8683 70.1875 22.077 70.1875 22.3203C70.1875 22.5635 70.2747 22.7733 70.449 22.9476C70.6233 23.1219 70.832 23.209 71.0763 23.209Z" fill="#492D7E"/>
<path d="M76.5579 21.499C76.1384 21.5264 75.8212 21.8932 75.8212 22.3128V27.6191H74.5149C73.923 27.6191 73.4974 27.4904 73.24 27.233C73.017 26.9959 72.9055 26.6797 72.9055 26.2824V24.967C72.9055 24.5474 72.5883 24.1806 72.1688 24.1532C71.7097 24.1238 71.3276 24.4876 71.3276 24.9406V26.2834C71.3276 26.7293 71.206 27.0638 70.9618 27.2867C70.7176 27.5097 70.4044 27.6211 70.0213 27.6211H69.1336V24.5738C69.1336 23.9424 68.6218 23.4306 67.9904 23.4306H66.9912C66.1551 23.4306 65.469 23.5664 64.9329 23.838C64.3968 24.1096 64.0046 24.4653 63.7573 24.9041C63.5101 25.343 63.3864 25.8203 63.3864 26.3361C63.3864 26.8104 63.4867 27.2381 63.6894 27.6211H62.906C62.3142 27.6211 61.8896 27.4924 61.6312 27.235C61.4082 26.9979 61.2967 26.6817 61.2967 26.2844V24.969C61.2967 24.5494 60.9795 24.1826 60.56 24.1552C60.1009 24.1258 59.7188 24.4897 59.7188 24.9427V26.2854C59.7188 26.7314 59.5962 27.0658 59.353 27.2887C59.2283 27.4022 59.0854 27.4864 58.9253 27.5421H54.6659C54.2747 27.5421 53.9575 27.8593 53.9575 28.2505V28.2586C53.9575 28.6498 54.2747 28.967 54.6659 28.967H56.2286C56.3765 29.0298 56.49 29.0997 56.5589 29.1798C56.6674 29.3055 56.7211 29.4615 56.7211 29.65C56.7211 29.9358 56.6562 30.1527 56.5275 30.3027C56.3988 30.4527 56.1759 30.5591 55.8587 30.6219C55.5415 30.6847 55.0763 30.7162 54.4642 30.7162H53.848C52.9704 30.7162 52.3228 30.5297 51.9043 30.1567C51.4867 29.7838 51.277 29.2355 51.277 28.5109C51.277 28.3103 51.2942 28.0914 51.3276 27.8542C51.3874 27.4387 51.1016 27.0364 50.6841 26.9898C50.3061 26.9482 49.9625 27.1965 49.8815 27.5593C49.7801 28.0103 49.7305 28.4359 49.7305 28.8342C49.7305 29.6075 49.9119 30.248 50.2737 30.7567C50.6355 31.2654 51.127 31.6414 51.7472 31.8846C52.3674 32.1279 53.0667 32.2505 53.847 32.2505H54.4632C55.7725 32.2505 56.7393 32.0397 57.3626 31.6181C57.9859 31.1965 58.298 30.5398 58.298 29.649C58.298 29.4676 58.2838 29.3075 58.2564 29.1686H58.4135C58.901 29.1686 59.3347 29.0886 59.7148 28.9285C60.0948 28.7683 60.41 28.5423 60.6603 28.2495C61.0505 28.8626 61.7994 29.1686 62.9071 29.1686H70.0223C70.5098 29.1686 70.9436 29.0886 71.3236 28.9285C71.7036 28.7683 72.0178 28.5423 72.2691 28.2495C72.6593 28.8626 73.4082 29.1686 74.5159 29.1686H76.3208C76.9167 29.1686 77.4001 28.6852 77.4001 28.0893V22.2885C77.4001 21.8355 77.018 21.4717 76.559 21.501M67.5465 27.6191H66.9922C66.2534 27.6191 65.7284 27.4975 65.4143 27.2533C65.1011 27.01 64.9441 26.6989 64.9441 26.3229C64.9441 25.947 65.1011 25.6338 65.4143 25.3825C65.7274 25.1311 66.2463 25.0065 66.9709 25.0065H67.5455V27.6191H67.5465Z" fill="#492D7E"/>
<path d="M79.2943 21.4972C78.8585 21.4972 78.5059 21.8499 78.5059 22.2856V28.3774C78.5059 28.8131 78.8595 29.1658 79.2943 29.1658C79.7291 29.1658 80.0828 28.8121 80.0828 28.3774V22.2856C80.0828 21.8499 79.7291 21.4972 79.2943 21.4972Z" fill="#492D7E"/>
<path d="M89.7636 21.4971C89.3278 21.4971 88.9751 21.8498 88.9751 22.2856V27.8807C88.9751 28.6753 88.8079 29.26 88.4735 29.636C88.1391 30.012 87.6202 30.2005 86.9169 30.2005C85.5102 30.2005 84.8059 29.5174 84.8059 28.1523C84.8059 27.8959 84.8312 27.6132 84.8819 27.3041C84.9549 26.8612 84.6073 26.4589 84.1583 26.4589C83.8178 26.4589 83.5209 26.693 83.4438 27.0254C83.3273 27.5311 83.2695 27.9932 83.2695 28.4128C83.2695 29.1647 83.4367 29.79 83.7712 30.2876C84.1056 30.7852 84.5475 31.1511 85.0978 31.3852C85.648 31.6183 86.2541 31.7348 86.9158 31.7348C88.0722 31.7348 88.967 31.3983 89.6014 30.7264C90.2358 30.0545 90.552 29.105 90.552 27.8787V22.2836C90.552 21.8478 90.1983 21.4951 89.7636 21.4951" fill="#492D7E"/>
<path d="M108.766 23.209C109.009 23.209 109.219 23.1219 109.393 22.9476C109.567 22.7733 109.655 22.5645 109.655 22.3203C109.655 22.076 109.567 21.8673 109.393 21.694C109.219 21.5197 109.01 21.4325 108.766 21.4325C108.521 21.4325 108.313 21.5197 108.138 21.694C107.964 21.8683 107.877 22.077 107.877 22.3203C107.877 22.5635 107.964 22.7733 108.138 22.9476C108.313 23.1219 108.521 23.209 108.766 23.209Z" fill="#492D7E"/>
<path d="M106.686 23.209C106.929 23.209 107.139 23.1219 107.313 22.9476C107.487 22.7733 107.574 22.5645 107.574 22.3203C107.574 22.076 107.487 21.8673 107.313 21.694C107.139 21.5197 106.93 21.4325 106.686 21.4325C106.441 21.4325 106.233 21.5197 106.058 21.694C105.884 21.8683 105.797 22.077 105.797 22.3203C105.797 22.5635 105.884 22.7733 106.058 22.9476C106.233 23.1219 106.441 23.209 106.686 23.209Z" fill="#492D7E"/>
<path d="M112.217 21.4972C111.782 21.4972 111.429 21.8499 111.429 22.2856V27.6193H110.123C109.531 27.6193 109.105 27.4906 108.848 27.2332C108.625 26.9961 108.513 26.6799 108.513 26.2826V24.9398C108.513 24.504 108.161 24.1514 107.725 24.1514C107.289 24.1514 106.936 24.505 106.936 24.9398V26.2826C106.936 26.7285 106.815 27.0629 106.571 27.2859C106.326 27.5089 106.013 27.6203 105.63 27.6203H105.379C105.17 27.6203 105.013 27.6132 104.909 27.599C104.804 27.5849 104.719 27.5453 104.652 27.4795C104.586 27.4136 104.539 27.3031 104.511 27.1501C104.379 26.4042 104.184 25.788 103.927 25.3006C103.669 24.8131 103.331 24.4301 102.913 24.1514C102.196 23.671 101.364 23.4308 100.416 23.4308C100.136 23.4308 99.8547 23.4511 99.5729 23.4926C99.1747 23.5504 98.8929 23.9112 98.9416 24.3105C98.9902 24.7118 99.355 24.9945 99.7574 24.9499C99.9074 24.9337 100.057 24.9246 100.207 24.9246C100.925 24.9246 101.524 25.0918 102.004 25.4263C102.241 25.5935 102.434 25.8326 102.584 26.1417C102.734 26.4518 102.853 26.8714 102.945 27.4004C102.952 27.4491 102.959 27.4916 102.966 27.5261C102.973 27.5605 102.98 27.593 102.987 27.6203H98.3903C98.3903 27.6203 98.3832 27.6203 98.3801 27.6203H97.3251V24.805C97.3251 24.0632 96.7232 23.4612 95.9813 23.4612H95.2456C94.4308 23.4612 93.7548 23.597 93.2187 23.8686C92.6826 24.1402 92.2884 24.4959 92.0381 24.9347C91.7868 25.3736 91.6621 25.8478 91.6621 26.3556C91.6621 26.8633 91.7837 27.3204 92.028 27.745C92.2712 28.1696 92.6603 28.5132 93.1934 28.7746C93.7265 29.0361 94.4034 29.1658 95.2253 29.1658H95.6641C95.5598 29.5144 95.3662 29.7698 95.0845 29.934C94.8291 30.0819 94.4875 30.16 94.068 30.1742C94.0619 30.1742 94.0548 30.1721 94.0487 30.1721H93.6839C93.6484 30.1711 93.616 30.1711 93.5795 30.1691C93.5572 30.1681 93.5349 30.1711 93.5126 30.1721H92.6543C92.2215 30.1721 91.8709 30.5228 91.8709 30.9555V30.9646C91.8709 31.3974 92.2215 31.748 92.6543 31.748H94.0487C94.0579 31.748 94.066 31.746 94.0741 31.745C94.1055 31.745 94.1389 31.748 94.1703 31.748C95.0693 31.748 95.7797 31.5301 96.3016 31.0944C96.8245 30.6596 97.1478 30.0171 97.2735 29.1668H98.3811C98.3811 29.1668 98.3882 29.1668 98.3913 29.1668H105.632C106.12 29.1668 106.553 29.0868 106.932 28.9266C107.312 28.7665 107.628 28.5405 107.878 28.2476C108.268 28.8608 109.017 29.1668 110.125 29.1668H112.168C112.632 29.1668 113.008 28.7908 113.008 28.3267V22.2867C113.008 21.8509 112.655 21.4982 112.22 21.4982M95.7665 27.6193H95.2436C94.5119 27.6193 93.9859 27.4977 93.6657 27.2535C93.3454 27.0102 93.1853 26.7032 93.1853 26.3343C93.1853 25.9654 93.3434 25.6573 93.6606 25.409C93.9778 25.1617 94.4977 25.0381 95.2223 25.0381H95.7655V27.6193H95.7665Z" fill="#492D7E"/>
<path d="M114.904 21.4972C114.468 21.4972 114.115 21.8499 114.115 22.2856V28.3774C114.115 28.8131 114.469 29.1658 114.904 29.1658C115.338 29.1658 115.692 28.8121 115.692 28.3774V22.2856C115.692 21.8499 115.338 21.4972 114.904 21.4972Z" fill="#492D7E"/>
<path d="M36.4383 12.0205H22.3294C21.6159 12.0205 21.0332 12.6042 21.0332 13.3167C21.0332 14.0291 21.6169 14.6129 22.3294 14.6129H36.4383C37.1518 14.6129 37.7345 14.0291 37.7345 13.3167C37.7345 12.6042 37.1508 12.0205 36.4383 12.0205Z" fill="#CB1784"/>
<path d="M31.8234 19.2871H19.3977C18.6843 19.2871 18.1016 19.8708 18.1016 20.5833C18.1016 21.2957 18.6853 21.8795 19.3977 21.8795H31.8234C32.5368 21.8795 33.1196 21.2957 33.1196 20.5833C33.1196 19.8708 32.5358 19.2871 31.8234 19.2871Z" fill="#CB1784"/>
<path d="M33.5926 26.5088H27.2708C26.5573 26.5088 25.9746 27.0925 25.9746 27.805C25.9746 28.5174 26.5583 29.1011 27.2708 29.1011H33.5926C34.306 29.1011 34.8887 28.5174 34.8887 27.805C34.8887 27.0925 34.305 26.5088 33.5926 26.5088Z" fill="#CB1784"/>
<path d="M34.0254 33.74L19.0946 33.816C18.4886 33.819 17.996 34.4048 17.9981 35.1183C18.0001 35.8317 18.4977 36.4124 19.1037 36.4094L34.0345 36.3334C34.6406 36.3303 35.1341 35.7446 35.1311 35.0311C35.128 34.3177 34.6304 33.737 34.0254 33.74Z" fill="#CB1784"/>
<path d="M16.2198 19.4724C15.5368 19.4724 14.9824 20.0268 14.9824 20.7098C14.9824 21.3929 15.5368 21.9472 16.2198 21.9472C16.9029 21.9472 17.4572 21.3929 17.4572 20.7098C17.4572 20.0268 16.9029 19.4724 16.2198 19.4724Z" fill="#CB1784"/>
<path d="M15.4093 33.8662C14.7262 33.8662 14.1719 34.4206 14.1719 35.1036C14.1719 35.7867 14.7262 36.341 15.4093 36.341C16.0923 36.341 16.6467 35.7867 16.6467 35.1036C16.6467 34.4206 16.0923 33.8662 15.4093 33.8662Z" fill="#CB1784"/>
<path d="M24.3387 26.6171H20.9022C20.2404 26.6171 19.6992 27.1582 19.6992 27.819C19.6992 28.4797 20.2404 29.0219 20.9022 29.0219H24.3387C25.0005 29.0219 25.5406 28.4808 25.5406 27.819C25.5406 27.1572 24.9994 26.6171 24.3387 26.6171Z" fill="#CB1784"/>
<path d="M19.3204 12.0479H17.2986C16.6369 12.0479 16.0957 12.589 16.0957 13.2498C16.0957 13.9105 16.6369 14.4527 17.2986 14.4527H19.3204C19.9822 14.4527 20.5224 13.9115 20.5224 13.2498C20.5224 12.588 19.9812 12.0479 19.3204 12.0479Z" fill="#CB1784"/>
<path d="M59.9706 0.612305H21.2364C21.1685 0.612305 21.1016 0.616358 21.0357 0.624466H19.0129C18.1434 0.624466 17.4391 1.3288 17.4391 2.19832C17.4391 3.06784 18.1434 3.77217 19.0129 3.77217H25.9438C27.1122 3.77217 28.1247 4.64068 28.2371 5.80309C28.3669 7.14081 27.3078 8.27686 25.9954 8.27686H2.2194C1.46845 8.27686 0.859375 8.88593 0.859375 9.6379C0.859375 10.3899 1.46845 10.9979 2.2194 10.9979H36.4439C37.6124 10.9979 38.6248 11.8664 38.7373 13.0288C38.867 14.3666 37.807 15.5036 36.4956 15.5036H25.0124C24.2615 15.5036 23.6524 16.1127 23.6524 16.8636V16.9255C23.6524 17.6774 24.2615 18.2865 25.0124 18.2865H31.9281C33.0965 18.2865 34.109 19.155 34.2214 20.3174C34.3512 21.6551 33.2921 22.7922 31.9797 22.7922H28.1226C27.3717 22.7922 26.7616 23.4013 26.7616 24.1532V24.1928C26.7616 24.9437 27.3707 25.5538 28.1226 25.5538H33.6174C34.7859 25.5538 35.7983 26.4223 35.9108 27.5847C36.0405 28.9224 34.9805 30.0595 33.6691 30.0595H21.8333C21.0823 30.0595 20.4733 30.6686 20.4733 31.4195V31.4631C20.4733 32.214 21.0823 32.8231 21.8333 32.8231H33.8384C35.0069 32.8231 36.0193 33.6916 36.1318 34.854C36.2615 36.1917 35.2014 37.3288 33.89 37.3288H26.5295C25.663 37.3288 24.9607 38.0311 24.9607 38.8976C24.9607 39.7641 25.663 40.4664 26.5295 40.4664H36.4713C37.0722 40.4664 37.5982 40.0549 37.7299 39.455L43.7163 12.9427C43.9088 12.0904 44.6658 11.4854 45.5384 11.4854H55.3889C57.0803 11.4854 57.7279 11.3617 58.1606 10.0311L61.1553 2.43141C61.5333 1.56797 60.9091 0.614332 59.9716 0.614332" fill="#492D7E"/>
<path d="M26.142 4.75391H8.76984C8.05639 4.75391 7.47266 5.33764 7.47266 6.05008C7.47266 6.76252 8.05639 7.34626 8.76984 7.34626H26.141C26.8545 7.34626 27.4372 6.76252 27.4372 6.05008C27.4372 5.33764 26.8535 4.75391 26.141 4.75391" fill="#CB1784"/>
</g>
<defs>
<clipPath id="clip0_117_3190">
<rect width="115.141" height="40.7753" fill="white" transform="translate(0.859375 0.612305)"/>
</clipPath>
</defs>
</svg>
