<svg width="14" height="15" viewBox="0 0 14 15" fill="none" xmlns="http://www.w3.org/2000/svg">
<path d="M13.3535 7.5C13.3535 11.0095 10.5085 13.8545 6.99902 13.8545C3.48947 13.8545 0.644531 11.0095 0.644531 7.5C0.644531 3.99045 3.48947 1.14551 6.99902 1.14551C10.5085 1.14551 13.3535 3.99045 13.3535 7.5Z" stroke="#1073A3" stroke-miterlimit="10" stroke-linecap="round" stroke-linejoin="round"/>
<path d="M9.5387 6.6537C9.5387 8.05749 8.40074 9.1955 6.9969 9.1955C5.59301 9.1955 4.45508 8.05749 4.45508 6.6537C4.45508 5.24994 5.59301 4.11193 6.9969 4.11193C8.40074 4.11193 9.5387 5.24994 9.5387 6.6537Z" stroke="#1073A3" stroke-miterlimit="10" stroke-linecap="round" stroke-linejoin="round"/>
<path d="M3.20508 12.5999C3.40837 10.6856 5.02816 9.19439 6.99634 9.19439C8.96457 9.19439 10.5843 10.6857 10.7875 12.6" stroke="#1073A3" stroke-miterlimit="10" stroke-linecap="round" stroke-linejoin="round"/>
</svg>
