<svg width="14" height="12" viewBox="0 0 14 12" fill="none" xmlns="http://www.w3.org/2000/svg">
<path d="M10.2933 0C11.1873 0 12.0473 0.353333 12.68 0.987333C13.3133 1.62 13.6673 2.47333 13.6673 3.36667V8.63333C13.6673 10.4933 12.154 12 10.2933 12H3.70732C1.84665 12 0.333984 10.4933 0.333984 8.63333V3.36667C0.333984 1.50667 1.83998 0 3.70732 0H10.2933ZM11.0473 3.46667C10.9073 3.45933 10.774 3.50667 10.6733 3.6L7.66732 6C7.28065 6.32067 6.72665 6.32067 6.33398 6L3.33398 3.6C3.12665 3.44667 2.83998 3.46667 2.66732 3.64667C2.48732 3.82667 2.46732 4.11333 2.61998 4.31333L2.70732 4.4L5.74065 6.76667C6.11398 7.06 6.56665 7.22 7.04065 7.22C7.51332 7.22 7.97398 7.06 8.34665 6.76667L11.354 4.36L11.4073 4.30667C11.5667 4.11333 11.5667 3.83333 11.4 3.64C11.3073 3.54067 11.18 3.48 11.0473 3.46667Z" fill="#7D7887"/>
</svg>
