<svg width="32" height="33" viewBox="0 0 32 33" fill="none" xmlns="http://www.w3.org/2000/svg">
<rect x="0.5" y="1" width="31" height="31" rx="15.5" stroke="#8D8D8D"/>
<path d="M19.6652 9.5C18.9148 9.51162 18.1808 9.72023 17.5372 10.1047C16.8937 10.4893 16.3634 11.0361 16 11.69C15.6366 11.0361 15.1063 10.4893 14.4628 10.1047C13.8192 9.72023 13.0852 9.51162 12.3348 9.5C11.1386 9.55176 10.0116 10.0729 9.19993 10.9495C8.38831 11.8262 7.95808 12.9871 8.00323 14.1786C8.00323 17.1961 11.1926 20.4917 13.8675 22.7262C14.4648 23.226 15.2199 23.5 16 23.5C16.7801 23.5 17.5352 23.226 18.1325 22.7262C20.8074 20.4917 23.9968 17.1961 23.9968 14.1786C24.0419 12.9871 23.6117 11.8262 22.8001 10.9495C21.9884 10.0729 20.8614 9.55176 19.6652 9.5ZM17.2762 21.7108C16.919 22.0104 16.467 22.1746 16 22.1746C15.533 22.1746 15.081 22.0104 14.7238 21.7108C11.2999 18.8499 9.33602 16.1051 9.33602 14.1786C9.29047 13.3389 9.58017 12.5154 10.1419 11.8875C10.7037 11.2597 11.492 10.8786 12.3348 10.8273C13.1777 10.8786 13.9659 11.2597 14.5277 11.8875C15.0895 12.5154 15.3792 13.3389 15.3336 14.1786C15.3336 14.3546 15.4038 14.5234 15.5288 14.6479C15.6538 14.7723 15.8233 14.8422 16 14.8422C16.1767 14.8422 16.3462 14.7723 16.4712 14.6479C16.5962 14.5234 16.6664 14.3546 16.6664 14.1786C16.6208 13.3389 16.9105 12.5154 17.4723 11.8875C18.0341 11.2597 18.8224 10.8786 19.6652 10.8273C20.508 10.8786 21.2963 11.2597 21.8581 11.8875C22.4198 12.5154 22.7095 13.3389 22.664 14.1786C22.664 16.1051 20.7001 18.8499 17.2762 21.7082V21.7108Z" fill="#8D8D8D"/>
</svg>
