<svg width="32" height="33" viewBox="0 0 32 33" fill="none" xmlns="http://www.w3.org/2000/svg">
<rect x="0.5" y="1" width="31" height="31" rx="15.5" stroke="#24BFDD"/>
<path d="M19.6669 17.9444C19.2887 17.9445 18.9161 18.0443 18.5814 18.2352C18.2467 18.4261 17.9599 18.7023 17.7457 19.0401L14.4963 17.4504C14.7242 16.8441 14.726 16.1657 14.5013 15.558L17.7477 13.9607C18.0643 14.4583 18.535 14.8165 19.0745 14.9703C19.6139 15.1241 20.1864 15.0633 20.688 14.7989C21.1897 14.5345 21.5872 14.0841 21.8085 13.5293C22.0299 12.9746 22.0604 12.3522 21.8945 11.7752C21.7285 11.1982 21.3772 10.7047 20.9042 10.3843C20.4313 10.0639 19.8679 9.93779 19.3165 10.0289C18.765 10.1199 18.262 10.4221 17.8986 10.8807C17.5352 11.3392 17.3355 11.9237 17.3358 12.5281C17.3358 12.6718 17.347 12.8153 17.3693 12.957L13.9244 14.6513C13.5923 14.3157 13.177 14.0924 12.7295 14.0088C12.282 13.9252 11.8217 13.9849 11.405 14.1806C10.9884 14.3763 10.6335 14.6995 10.3839 15.1106C10.1344 15.5216 10.0009 16.0027 10 16.4947C9.99908 16.9867 10.1307 17.4683 10.3787 17.8805C10.6267 18.2926 10.9804 18.6174 11.3963 18.8149C11.8122 19.0125 12.2723 19.0742 12.7201 18.9926C13.1679 18.911 13.584 18.6896 13.9174 18.3555L17.3668 20.0438C17.2857 20.5546 17.3515 21.08 17.5553 21.5489C17.759 22.0178 18.0909 22.4076 18.5059 22.6653C18.921 22.923 19.3991 23.0363 19.8755 22.9898C20.352 22.9433 20.8037 22.7392 21.1695 22.4053C21.5353 22.0713 21.7975 21.6236 21.9207 21.1227C22.0438 20.6219 22.0218 20.0922 21.8578 19.6053C21.6937 19.1185 21.3955 18.698 21.0035 18.4009C20.6116 18.1038 20.1453 17.9444 19.6669 17.9444Z" fill="#24BFDD"/>
</svg>
