<svg width="15" height="15" viewBox="0 0 15 15" fill="none" xmlns="http://www.w3.org/2000/svg">
<path d="M6.18919 1.68092C6.72565 0.550778 8.27565 0.550776 8.81211 1.68092L9.73925 3.6341C9.95227 4.08288 10.3641 4.39394 10.8404 4.4659L12.9135 4.77911C14.1131 4.96034 14.5921 6.49301 13.7241 7.3727L12.2239 8.89304C11.8792 9.24237 11.722 9.74567 11.8033 10.2389L12.1575 12.3857C12.3624 13.6278 11.1084 14.5751 10.0355 13.9886L8.1812 12.975C7.75515 12.7422 7.24615 12.7422 6.8201 12.975L4.96583 13.9886C3.89291 14.5751 2.63893 13.6278 2.84384 12.3857L3.19798 10.2389C3.27935 9.74567 3.12206 9.24237 2.77737 8.89304L1.27723 7.3727C0.409228 6.49301 0.888203 4.96034 2.08776 4.77911L4.1609 4.4659C4.63724 4.39394 5.04903 4.08288 5.26206 3.6341L6.18919 1.68092Z" fill="#FCA320"/>
</svg>
